REM DIRINDEX 1\2,1\3,1\4
REM DIRNAME cjc105,folder01,folder02,folder03
TITLE ""
FILE "DISC2Track28.mp3" MP3
  TRACK 01 AUDIO
    TITLE "0:"
    INDEX 01 00:00:00
  TRACK 02 AUDIO
    TITLE "4:cjc105_3625"
    INDEX 01 00:00:17
  TRACK 03 AUDIO
    TITLE "0:"
    INDEX 01 00:03:04
  TRACK 04 AUDIO
    TITLE "3:cjc105_3626"
    INDEX 01 00:03:53
  TRACK 05 AUDIO
    TITLE "2:cjc105_3627"
    INDEX 01 00:04:70
  TRACK 06 AUDIO
    TITLE "3:cjc105_3628"
    INDEX 01 00:06:18
  TRACK 07 AUDIO
    TITLE "2:cjc105_3629"
    INDEX 01 00:07:23
  TRACK 08 AUDIO
    TITLE "3:cjc105_3630"
    INDEX 01 00:08:52
  TRACK 09 AUDIO
    TITLE "2:cjc105_3631"
    INDEX 01 00:09:45
  TRACK 10 AUDIO
    TITLE "3:cjc105_3632"
    INDEX 01 00:10:63
  TRACK 11 AUDIO
    TITLE "2:cjc105_3633"
    INDEX 01 00:11:70
  TRACK 12 AUDIO
    TITLE "3:cjc105_3634"
    INDEX 01 00:13:08
  TRACK 13 AUDIO
    TITLE "2:cjc105_3635"
    INDEX 01 00:13:59
  TRACK 14 AUDIO
    TITLE "3:cjc105_3636"
    INDEX 01 00:14:72
  TRACK 15 AUDIO
    TITLE "2:cjc105_3637"
    INDEX 01 00:15:72
  TRACK 16 AUDIO
    TITLE "3:cjc105_3638"
    INDEX 01 00:17:20
  TRACK 17 AUDIO
    TITLE "2:cjc105_3639"
    INDEX 01 00:18:39
  TRACK 18 AUDIO
    TITLE "3:cjc105_3640"
    INDEX 01 00:19:46
  TRACK 19 AUDIO
    TITLE "2:cjc105_3641"
    INDEX 01 00:20:51
  TRACK 20 AUDIO
    TITLE "3:cjc105_3642"
    INDEX 01 00:22:19
  TRACK 21 AUDIO
    TITLE "2:cjc105_3643"
    INDEX 01 00:23:28
  TRACK 22 AUDIO
    TITLE "3:cjc105_3644"
    INDEX 01 00:24:43
  TRACK 23 AUDIO
    TITLE "2:cjc105_3645"
    INDEX 01 00:25:46
  TRACK 24 AUDIO
    TITLE "3:cjc105_3646"
    INDEX 01 00:27:08
  TRACK 25 AUDIO
    TITLE "2:cjc105_3647"
    INDEX 01 00:28:13
  TRACK 26 AUDIO
    TITLE "3:cjc105_3648"
    INDEX 01 00:29:21
  TRACK 27 AUDIO
    TITLE "2:cjc105_3649"
    INDEX 01 00:30:40
  TRACK 28 AUDIO
    TITLE "3:cjc105_3650"
    INDEX 01 00:31:61
  TRACK 29 AUDIO
    TITLE "2:cjc105_3651"
    INDEX 01 00:32:62
  TRACK 30 AUDIO
    TITLE "3:cjc105_3652"
    INDEX 01 00:33:68
  TRACK 31 AUDIO
    TITLE "2:cjc105_3653"
    INDEX 01 00:35:17
  TRACK 32 AUDIO
    TITLE "3:cjc105_3654"
    INDEX 01 00:36:35
  TRACK 33 AUDIO
    TITLE "2:cjc105_3655"
    INDEX 01 00:37:36
  TRACK 34 AUDIO
    TITLE "3:cjc105_3656"
    INDEX 01 00:38:49
  TRACK 35 AUDIO
    TITLE "2:cjc105_3657"
    INDEX 01 00:39:58
  TRACK 36 AUDIO
    TITLE "3:cjc105_3658"
    INDEX 01 00:40:68
  TRACK 37 AUDIO
    TITLE "2:cjc105_3659"
    INDEX 01 00:42:12
  TRACK 38 AUDIO
    TITLE "3:cjc105_3660"
    INDEX 01 00:43:19
  TRACK 39 AUDIO
    TITLE "2:cjc105_3661"
    INDEX 01 00:44:42
  TRACK 40 AUDIO
    TITLE "3:cjc105_3662"
    INDEX 01 00:45:51
  TRACK 41 AUDIO
    TITLE "2:cjc105_3663"
    INDEX 01 00:46:43
  TRACK 42 AUDIO
    TITLE "3:cjc105_3664"
    INDEX 01 00:47:54
  TRACK 43 AUDIO
    TITLE "2:cjc105_3665"
    INDEX 01 00:48:44
  TRACK 44 AUDIO
    TITLE "3:cjc105_3666"
    INDEX 01 00:49:41
  TRACK 45 AUDIO
    TITLE "2:cjc105_3667"
    INDEX 01 00:50:60
  TRACK 46 AUDIO
    TITLE "3:cjc105_3668"
    INDEX 01 00:52:02
  TRACK 47 AUDIO
    TITLE "2:cjc105_3669"
    INDEX 01 00:53:00
  TRACK 48 AUDIO
    TITLE "3:cjc105_3670"
    INDEX 01 00:54:27
  TRACK 49 AUDIO
    TITLE "2:cjc105_3671"
    INDEX 01 00:55:32
  TRACK 50 AUDIO
    TITLE "3:cjc105_3672"
    INDEX 01 00:56:45
  TRACK 51 AUDIO
    TITLE "2:cjc105_3673"
    INDEX 01 00:57:46
  TRACK 52 AUDIO
    TITLE "3:cjc105_3674"
    INDEX 01 00:58:48
  TRACK 53 AUDIO
    TITLE "2:cjc105_3675"
    INDEX 01 00:59:30
  TRACK 54 AUDIO
    TITLE "3:cjc105_3676"
    INDEX 01 01:00:39
  TRACK 55 AUDIO
    TITLE "2:cjc105_3677"
    INDEX 01 01:01:40
  TRACK 56 AUDIO
    TITLE "3:cjc105_3678"
    INDEX 01 01:02:52
  TRACK 57 AUDIO
    TITLE "2:cjc105_3679"
    INDEX 01 01:03:53
  TRACK 58 AUDIO
    TITLE "3:cjc105_3680"
    INDEX 01 01:04:72
  TRACK 59 AUDIO
    TITLE "2:cjc105_3681"
    INDEX 01 01:06:06
  TRACK 60 AUDIO
    TITLE "3:cjc105_3682"
    INDEX 01 01:07:35
  TRACK 61 AUDIO
    TITLE "2:cjc105_3683"
    INDEX 01 01:08:35
  TRACK 62 AUDIO
    TITLE "0:"
    INDEX 01 01:09:46
